<svg xmlns="http://www.w3.org/2000/svg" xmlns:xlink="http://www.w3.org/1999/xlink" width="400" zoomAndPan="magnify" viewBox="0 0 300 299.999988" height="400" preserveAspectRatio="xMidYMid meet" version="1.0"><defs><clipPath id="3f232b9266"><path d="M 1 0 L 299 0 L 299 298.5 L 1 298.5 Z M 1 0 " clip-rule="nonzero"/></clipPath></defs><g clip-path="url(#3f232b9266)"><path fill="#000000" d="M 189.714844 34.472656 C 185.816406 30.570312 179.042969 30.621094 175.195312 34.472656 L 161.136719 48.550781 C 160.671875 49.011719 160.261719 49.628906 160.007812 50.246094 L 132.757812 117.292969 C 132.605469 117.703125 132.503906 118.117188 132.449219 118.527344 L 5.144531 246.042969 C -0.0898438 251.285156 -0.0898438 259.863281 5.144531 265.105469 L 34.597656 294.59375 C 37.214844 297.214844 40.652344 298.550781 44.089844 298.550781 C 47.527344 298.550781 50.96875 297.214844 53.585938 294.59375 L 181.042969 166.976562 C 181.453125 166.921875 181.8125 166.921875 182.171875 166.769531 L 249.136719 139.488281 C 249.75 139.230469 250.367188 138.871094 250.828125 138.359375 L 264.886719 124.332031 C 266.839844 122.378906 267.914062 119.8125 267.914062 117.089844 C 267.914062 114.363281 266.839844 111.746094 264.886719 109.84375 L 189.714844 34.578125 Z M 166.625 61.292969 L 238.101562 132.859375 L 181.453125 155.929688 L 143.585938 118.011719 Z M 46.347656 287.300781 C 45.117188 288.53125 43.066406 288.53125 41.832031 287.300781 L 12.378906 257.808594 C 11.148438 256.578125 11.148438 254.519531 12.378906 253.289062 L 26.441406 239.261719 L 60.410156 273.273438 Z M 67.644531 265.976562 L 33.675781 231.96875 L 138.300781 127.210938 L 172.269531 161.222656 Z M 247.238281 127.464844 L 172.0625 52.199219 L 182.480469 41.769531 L 257.652344 117.035156 Z M 127.21875 172.371094 C 120.546875 165.691406 108.949219 165.691406 102.28125 172.371094 L 78.726562 195.953125 C 75.390625 199.292969 73.542969 203.710938 73.542969 208.4375 C 73.542969 213.164062 75.390625 217.582031 78.726562 220.921875 C 82.0625 224.261719 86.476562 226.109375 91.195312 226.109375 C 95.917969 226.109375 100.328125 224.261719 103.664062 220.921875 C 103.664062 220.921875 127.21875 197.339844 127.21875 197.339844 C 130.550781 194 132.398438 189.582031 132.398438 184.855469 C 132.398438 180.128906 130.550781 175.710938 127.21875 172.371094 Z M 91.195312 201.039062 C 93.09375 201.039062 94.941406 201.757812 96.378906 203.195312 C 97.765625 204.582031 98.535156 206.433594 98.535156 208.386719 C 98.535156 210.335938 97.765625 212.1875 96.378906 213.574219 C 94.273438 215.679688 91.042969 216.195312 88.375 215.167969 C 87.5 214.808594 86.679688 214.292969 85.960938 213.574219 C 84.578125 212.1875 83.808594 210.335938 83.808594 208.386719 C 83.808594 206.433594 84.578125 204.582031 85.960938 203.195312 C 87.398438 201.757812 89.296875 201.039062 91.144531 201.039062 Z M 119.929688 190.042969 L 107.667969 202.324219 C 106.796875 199.960938 105.460938 197.75 103.613281 195.953125 C 101.765625 194.101562 99.558594 192.765625 97.25 191.945312 L 109.515625 179.664062 C 110.898438 178.277344 112.746094 177.507812 114.695312 177.507812 C 116.648438 177.507812 118.496094 178.277344 119.878906 179.664062 C 121.265625 181.050781 122.035156 182.902344 122.035156 184.855469 C 122.035156 186.804688 121.265625 188.65625 119.878906 190.042969 Z M 240.617188 58.773438 C 238.617188 56.773438 238.617188 53.535156 240.617188 51.53125 L 261.246094 30.878906 C 263.246094 28.875 266.480469 28.875 268.480469 30.878906 C 270.480469 32.882812 270.480469 36.117188 268.480469 38.121094 L 247.851562 58.773438 C 246.828125 59.804688 245.542969 60.265625 244.210938 60.265625 C 242.875 60.265625 241.59375 59.75 240.566406 58.773438 Z M 295.882812 79.582031 L 269.660156 92.324219 C 268.941406 92.683594 268.171875 92.839844 267.402344 92.839844 C 265.503906 92.839844 263.65625 91.757812 262.785156 89.960938 C 261.554688 87.390625 262.628906 84.308594 265.144531 83.078125 L 291.367188 70.335938 C 293.929688 69.101562 297.011719 70.179688 298.242188 72.699219 C 299.472656 75.265625 298.394531 78.351562 295.882812 79.582031 Z M 207.058594 29.644531 L 219.785156 3.390625 C 221.015625 0.820312 224.09375 -0.207031 226.660156 1.027344 C 229.226562 2.261719 230.253906 5.34375 229.019531 7.910156 L 216.296875 34.164062 C 215.421875 36.015625 213.574219 37.042969 211.675781 37.042969 C 210.90625 37.042969 210.136719 36.886719 209.417969 36.527344 C 206.855469 35.296875 205.828125 32.214844 207.058594 29.644531 Z M 207.058594 29.644531 " fill-opacity="1" fill-rule="nonzero"/></g></svg>