<svg xmlns="http://www.w3.org/2000/svg" xmlns:xlink="http://www.w3.org/1999/xlink" width="1920" zoomAndPan="magnify" viewBox="0 0 1440 809.999993" height="1080" preserveAspectRatio="xMidYMid meet" version="1.0"><defs><clipPath id="0f99855bad"><path d="M 777 353.53125 L 848.519531 353.53125 L 848.519531 506 L 777 506 Z M 777 353.53125 " clip-rule="nonzero"/></clipPath><clipPath id="5971ae51b8"><path d="M 716.035156 353.53125 L 766 353.53125 L 766 593.660156 L 716.035156 593.660156 Z M 716.035156 353.53125 " clip-rule="nonzero"/></clipPath><clipPath id="a4613aa119"><path d="M 947 353.53125 L 1018.746094 353.53125 L 1018.746094 506 L 947 506 Z M 947 353.53125 " clip-rule="nonzero"/></clipPath><clipPath id="d4b872ad5e"><path d="M 886.257812 353.53125 L 936 353.53125 L 936 593.660156 L 886.257812 593.660156 Z M 886.257812 353.53125 " clip-rule="nonzero"/></clipPath><clipPath id="ce40f72bd2"><path d="M 521 215.8125 L 679 215.8125 L 679 491.132812 L 521 491.132812 Z M 521 215.8125 " clip-rule="nonzero"/></clipPath><clipPath id="a43ee879cf"><path d="M 420.777344 225 L 582 225 L 582 491.132812 L 420.777344 491.132812 Z M 420.777344 225 " clip-rule="nonzero"/></clipPath></defs><g clip-path="url(#0f99855bad)"><path fill="#ffffff" d="M 797.410156 353.53125 L 777.089844 353.53125 L 777.089844 394.152344 L 785.386719 394.152344 C 793.425781 394.152344 799.941406 400.667969 799.941406 408.707031 L 799.941406 447.027344 C 800.320312 460.542969 793.425781 466.910156 785.386719 466.910156 L 777.089844 466.910156 L 777.089844 505.050781 L 786.675781 505.050781 C 815.140625 505.050781 848.945312 496.742188 848.945312 450.125 L 848.945312 405.066406 C 848.949219 376.605469 825.875 353.53125 797.410156 353.53125 Z M 797.410156 353.53125 " fill-opacity="1" fill-rule="nonzero"/></g><g clip-path="url(#5971ae51b8)"><path fill="#ffffff" d="M 764.523438 579.40625 L 764.523438 353.53125 L 716.050781 353.53125 L 716.050781 594.179688 L 765.058594 594.179688 L 765.058594 579.40625 Z M 764.523438 579.40625 " fill-opacity="1" fill-rule="nonzero"/></g><g clip-path="url(#a4613aa119)"><path fill="#ffffff" d="M 967.636719 353.53125 L 947.316406 353.53125 L 947.316406 394.152344 L 955.613281 394.152344 C 963.648438 394.152344 970.167969 400.667969 970.167969 408.707031 L 970.167969 447.027344 C 970.546875 460.542969 963.648438 466.910156 955.613281 466.910156 L 947.316406 466.910156 L 947.316406 505.050781 L 956.902344 505.050781 C 985.367188 505.050781 1019.167969 496.742188 1019.167969 450.125 L 1019.167969 405.066406 C 1019.171875 376.605469 996.097656 353.53125 967.636719 353.53125 Z M 967.636719 353.53125 " fill-opacity="1" fill-rule="nonzero"/></g><g clip-path="url(#d4b872ad5e)"><path fill="#ffffff" d="M 934.75 579.40625 L 934.75 353.53125 L 886.277344 353.53125 L 886.277344 594.179688 L 935.28125 594.179688 L 935.28125 579.40625 Z M 934.75 579.40625 " fill-opacity="1" fill-rule="nonzero"/></g><g clip-path="url(#ce40f72bd2)"><path fill="#ffffff" d="M 581.441406 215.8125 L 521.75 215.8125 C 534.0625 250.75 607.449219 459.132812 618.730469 491.230469 L 678.421875 491.230469 Z M 581.441406 215.8125 " fill-opacity="1" fill-rule="nonzero"/></g><g clip-path="url(#a43ee879cf)"><path fill="#ffffff" d="M 522.757812 370.574219 L 543.890625 310.511719 L 514.070312 225.769531 L 420.589844 491.230469 L 480.28125 491.230469 C 482.917969 483.742188 504.566406 422.148438 506.550781 416.65625 C 512.472656 416.621094 573.640625 416.679688 581.285156 416.65625 L 565.023438 370.574219 Z M 522.757812 370.574219 " fill-opacity="1" fill-rule="nonzero"/></g></svg>