<svg xmlns="http://www.w3.org/2000/svg" xmlns:xlink="http://www.w3.org/1999/xlink" width="400" zoomAndPan="magnify" viewBox="0 0 300 299.999988" height="400" preserveAspectRatio="xMidYMid meet" version="1.0"><defs><clipPath id="a2be672dce"><path d="M 150 0 C 67.15625 0 0 67.15625 0 150 C 0 232.84375 67.15625 300 150 300 C 232.84375 300 300 232.84375 300 150 C 300 67.15625 232.84375 0 150 0 Z M 150 0 " clip-rule="nonzero"/></clipPath><clipPath id="317ed4b03b"><path d="M 101.421875 87 L 198.921875 87 L 198.921875 257.347656 L 101.421875 257.347656 Z M 101.421875 87 " clip-rule="nonzero"/></clipPath><clipPath id="25939d83bc"><path d="M 144 42.847656 L 156 42.847656 L 156 72 L 144 72 Z M 144 42.847656 " clip-rule="nonzero"/></clipPath></defs><g clip-path="url(#a2be672dce)"><rect x="-30" width="360" fill="#89adc6" y="-29.999999" height="359.999986" fill-opacity="1"/></g><g clip-path="url(#317ed4b03b)"><path fill="#000000" d="M 101.425781 102.441406 L 101.425781 123.515625 C 101.425781 128.0625 102.855469 132.410156 105.554688 136.085938 L 121.789062 158.1875 L 121.789062 241.164062 C 121.789062 250.039062 129.042969 257.261719 137.960938 257.261719 L 162.382812 257.261719 C 171.300781 257.261719 178.554688 250.039062 178.554688 241.164062 L 178.554688 158.1875 L 194.792969 136.082031 C 197.492188 132.410156 198.917969 128.0625 198.917969 123.515625 L 198.917969 102.441406 C 198.917969 94.140625 192.132812 87.386719 183.789062 87.386719 L 116.554688 87.386719 C 108.210938 87.386719 101.425781 94.140625 101.425781 102.441406 Z M 167.078125 161.394531 L 167.078125 241.164062 C 167.078125 243.742188 164.96875 245.839844 162.382812 245.839844 L 137.960938 245.839844 C 135.375 245.839844 133.265625 243.742188 133.265625 241.164062 L 133.265625 161.394531 Z M 187.4375 121.527344 L 187.4375 123.515625 C 187.4375 125.625 186.777344 127.636719 185.527344 129.34375 L 170.371094 149.972656 L 129.972656 149.972656 L 114.816406 129.347656 C 113.566406 127.636719 112.90625 125.625 112.90625 123.515625 L 112.90625 121.527344 Z M 183.789062 98.808594 C 185.800781 98.808594 187.4375 100.441406 187.4375 102.441406 L 187.4375 110.105469 L 112.90625 110.105469 L 112.90625 102.441406 C 112.90625 100.441406 114.542969 98.808594 116.554688 98.808594 Z M 183.789062 98.808594 " fill-opacity="1" fill-rule="nonzero"/></g><path fill="#000000" d="M 144.433594 193.597656 L 144.433594 176.613281 C 144.433594 176.203125 144.515625 175.804688 144.671875 175.421875 C 144.832031 175.039062 145.058594 174.703125 145.351562 174.410156 C 145.644531 174.117188 145.984375 173.894531 146.367188 173.734375 C 146.75 173.578125 147.148438 173.5 147.566406 173.5 L 152.78125 173.5 C 153.195312 173.5 153.597656 173.578125 153.980469 173.734375 C 154.363281 173.894531 154.703125 174.117188 154.996094 174.410156 C 155.289062 174.703125 155.515625 175.039062 155.675781 175.421875 C 155.832031 175.804688 155.914062 176.203125 155.914062 176.613281 L 155.914062 193.597656 C 155.914062 194.011719 155.832031 194.410156 155.675781 194.792969 C 155.515625 195.171875 155.289062 195.511719 154.996094 195.800781 C 154.703125 196.09375 154.363281 196.320312 153.980469 196.476562 C 153.597656 196.636719 153.195312 196.714844 152.78125 196.714844 L 147.566406 196.714844 C 147.148438 196.714844 146.75 196.636719 146.367188 196.476562 C 145.984375 196.320312 145.644531 196.09375 145.351562 195.800781 C 145.058594 195.511719 144.832031 195.171875 144.671875 194.792969 C 144.515625 194.410156 144.433594 194.011719 144.433594 193.597656 Z M 144.433594 193.597656 " fill-opacity="1" fill-rule="nonzero"/><g clip-path="url(#25939d83bc)"><path fill="#000000" d="M 144.441406 48.640625 L 144.441406 65.449219 C 144.441406 68.601562 147.011719 71.15625 150.179688 71.15625 C 153.351562 71.15625 155.921875 68.601562 155.921875 65.449219 L 155.921875 48.640625 C 155.921875 45.488281 153.351562 42.929688 150.179688 42.929688 C 147.011719 42.929688 144.441406 45.488281 144.441406 48.640625 Z M 144.441406 48.640625 " fill-opacity="1" fill-rule="nonzero"/></g><path fill="#000000" d="M 178.191406 53.601562 L 171.054688 68.835938 C 169.726562 71.699219 170.964844 75.097656 173.832031 76.425781 C 176.707031 77.761719 180.117188 76.523438 181.457031 73.664062 L 188.59375 58.429688 C 188.957031 57.648438 189.128906 56.828125 189.128906 56.019531 C 189.128906 53.863281 187.90625 51.804688 185.816406 50.835938 C 182.945312 49.503906 179.53125 50.742188 178.191406 53.601562 Z M 178.191406 53.601562 " fill-opacity="1" fill-rule="nonzero"/><path fill="#000000" d="M 129.824219 71.15625 C 129.824219 70.351562 129.652344 69.53125 129.289062 68.75 L 122.152344 53.515625 C 120.8125 50.65625 117.402344 49.417969 114.527344 50.75 C 111.65625 52.085938 110.410156 55.476562 111.75 58.34375 L 118.886719 73.578125 C 120.226562 76.4375 123.640625 77.675781 126.511719 76.339844 C 128.601562 75.371094 129.824219 73.3125 129.824219 71.15625 Z M 129.824219 71.15625 " fill-opacity="1" fill-rule="nonzero"/></svg>