<svg xmlns="http://www.w3.org/2000/svg" xmlns:xlink="http://www.w3.org/1999/xlink" width="400" zoomAndPan="magnify" viewBox="0 0 300 299.999988" height="400" preserveAspectRatio="xMidYMid meet" version="1.0"><defs><clipPath id="104cbd6f3a"><path d="M 150 0 C 67.15625 0 0 67.15625 0 150 C 0 232.84375 67.15625 300 150 300 C 232.84375 300 300 232.84375 300 150 C 300 67.15625 232.84375 0 150 0 Z M 150 0 " clip-rule="nonzero"/></clipPath><clipPath id="670d5f4d81"><path d="M 101.421875 87 L 198.921875 87 L 198.921875 257.347656 L 101.421875 257.347656 Z M 101.421875 87 " clip-rule="nonzero"/></clipPath><clipPath id="8d9c653bf2"><path d="M 144 42.847656 L 156 42.847656 L 156 71 L 144 71 Z M 144 42.847656 " clip-rule="nonzero"/></clipPath></defs><g clip-path="url(#104cbd6f3a)"><rect x="-30" width="360" fill="#89adc6" y="-29.999999" height="359.999986" fill-opacity="1"/></g><g clip-path="url(#670d5f4d81)"><path fill="#ffefc6" d="M 101.425781 102.300781 L 101.425781 123.390625 C 101.425781 127.945312 102.847656 132.292969 105.539062 135.972656 L 121.714844 158.09375 L 121.714844 241.152344 C 121.714844 250.035156 128.945312 257.261719 137.828125 257.261719 L 162.164062 257.261719 C 171.046875 257.261719 178.277344 250.035156 178.277344 241.152344 L 178.277344 158.09375 L 194.457031 135.96875 C 197.144531 132.292969 198.566406 127.945312 198.566406 123.390625 L 198.566406 102.300781 C 198.566406 93.988281 191.804688 87.230469 183.492188 87.230469 L 116.5 87.230469 C 108.1875 87.230469 101.425781 93.988281 101.425781 102.300781 Z M 166.839844 161.304688 L 166.839844 241.152344 C 166.839844 243.730469 164.742188 245.832031 162.164062 245.832031 L 137.832031 245.832031 C 135.25 245.832031 133.152344 243.730469 133.152344 241.152344 L 133.152344 161.304688 Z M 187.128906 121.402344 L 187.128906 123.390625 C 187.128906 125.503906 186.46875 127.515625 185.226562 129.222656 L 170.121094 149.871094 L 129.871094 149.871094 L 114.769531 129.226562 C 113.523438 127.519531 112.863281 125.503906 112.863281 123.390625 L 112.863281 121.402344 Z M 183.492188 98.660156 C 185.496094 98.660156 187.128906 100.292969 187.128906 102.300781 L 187.128906 109.96875 L 112.863281 109.96875 L 112.863281 102.300781 C 112.863281 100.292969 114.496094 98.660156 116.5 98.660156 Z M 183.492188 98.660156 " fill-opacity="1" fill-rule="nonzero"/></g><path fill="#ffefc6" d="M 144.28125 193.539062 L 144.28125 176.539062 C 144.28125 176.125 144.359375 175.726562 144.515625 175.347656 C 144.675781 174.964844 144.902344 174.625 145.191406 174.335938 C 145.484375 174.042969 145.824219 173.816406 146.203125 173.65625 C 146.585938 173.5 146.984375 173.421875 147.398438 173.421875 L 152.597656 173.421875 C 153.011719 173.421875 153.40625 173.5 153.789062 173.65625 C 154.171875 173.816406 154.511719 174.042969 154.800781 174.335938 C 155.09375 174.625 155.320312 174.964844 155.476562 175.347656 C 155.636719 175.726562 155.714844 176.125 155.714844 176.539062 L 155.714844 193.539062 C 155.714844 193.953125 155.636719 194.351562 155.476562 194.734375 C 155.320312 195.117188 155.09375 195.453125 154.800781 195.746094 C 154.511719 196.039062 154.171875 196.261719 153.789062 196.421875 C 153.40625 196.578125 153.011719 196.660156 152.597656 196.660156 L 147.398438 196.660156 C 146.984375 196.660156 146.585938 196.578125 146.203125 196.421875 C 145.824219 196.261719 145.484375 196.039062 145.191406 195.746094 C 144.902344 195.453125 144.675781 195.117188 144.515625 194.734375 C 144.359375 194.351562 144.28125 193.953125 144.28125 193.539062 Z M 144.28125 193.539062 " fill-opacity="1" fill-rule="nonzero"/><g clip-path="url(#8d9c653bf2)"><path fill="#ffefc6" d="M 144.285156 48.449219 L 144.285156 65.269531 C 144.285156 68.425781 146.847656 70.984375 150.003906 70.984375 C 153.164062 70.984375 155.722656 68.425781 155.722656 65.269531 L 155.722656 48.449219 C 155.722656 45.289062 153.164062 42.730469 150.003906 42.730469 C 146.847656 42.730469 144.285156 45.289062 144.285156 48.449219 Z M 144.285156 48.449219 " fill-opacity="1" fill-rule="nonzero"/></g><path fill="#ffefc6" d="M 177.914062 53.410156 L 170.804688 68.660156 C 169.480469 71.527344 170.714844 74.929688 173.570312 76.257812 C 176.433594 77.59375 179.835938 76.355469 181.167969 73.492188 L 188.277344 58.242188 C 188.640625 57.460938 188.8125 56.640625 188.8125 55.832031 C 188.8125 53.675781 187.59375 51.613281 185.511719 50.644531 C 182.648438 49.308594 179.25 50.546875 177.914062 53.410156 Z M 177.914062 53.410156 " fill-opacity="1" fill-rule="nonzero"/><path fill="#ffefc6" d="M 129.722656 70.984375 C 129.722656 70.179688 129.550781 69.355469 129.1875 68.574219 L 122.078125 53.324219 C 120.742188 50.460938 117.34375 49.222656 114.480469 50.558594 C 111.621094 51.894531 110.375 55.289062 111.714844 58.15625 L 118.824219 73.40625 C 120.15625 76.269531 123.558594 77.507812 126.421875 76.171875 C 128.503906 75.203125 129.722656 73.140625 129.722656 70.984375 Z M 129.722656 70.984375 " fill-opacity="1" fill-rule="nonzero"/></svg>