<svg xmlns="http://www.w3.org/2000/svg" xmlns:xlink="http://www.w3.org/1999/xlink" width="1920" zoomAndPan="magnify" viewBox="0 0 1440 809.999993" height="1080" preserveAspectRatio="xMidYMid meet" version="1.0"><defs><clipPath id="22cec4dd1f"><path d="M 459 145 L 980 145 L 980 665.636719 L 459 665.636719 Z M 459 145 " clip-rule="nonzero"/></clipPath></defs><g clip-path="url(#22cec4dd1f)"><path fill="#000000" d="M 789.277344 204.589844 C 782.460938 197.769531 770.625 197.859375 763.902344 204.589844 L 739.332031 229.171875 C 738.527344 229.976562 737.808594 231.054688 737.359375 232.132812 L 689.746094 349.210938 C 689.476562 349.929688 689.296875 350.644531 689.207031 351.363281 L 466.742188 574.039062 C 457.597656 583.191406 457.597656 598.171875 466.742188 607.324219 L 518.210938 658.820312 C 522.785156 663.394531 528.792969 665.726562 534.800781 665.726562 C 540.808594 665.726562 546.816406 663.394531 551.386719 658.820312 L 774.125 435.964844 C 774.839844 435.875 775.46875 435.875 776.097656 435.605469 L 893.113281 387.96875 C 894.1875 387.519531 895.265625 386.890625 896.070312 385.992188 L 920.640625 361.5 C 924.046875 358.09375 925.929688 353.605469 925.929688 348.851562 C 925.929688 344.097656 924.046875 339.519531 920.640625 336.203125 L 789.277344 204.765625 Z M 748.925781 251.417969 L 873.835938 376.394531 L 774.839844 416.675781 L 708.667969 350.464844 Z M 538.746094 646.082031 C 536.59375 648.234375 533.007812 648.234375 530.855469 646.082031 L 479.386719 594.582031 C 477.234375 592.429688 477.234375 588.839844 479.386719 586.6875 L 503.953125 562.195312 L 563.316406 621.589844 Z M 575.957031 608.847656 L 516.597656 549.457031 L 699.429688 366.527344 L 758.789062 425.917969 Z M 889.796875 366.972656 L 758.433594 235.539062 L 776.632812 217.328125 L 907.996094 348.761719 Z M 680.0625 445.386719 C 668.40625 433.722656 648.140625 433.722656 636.484375 445.386719 L 595.324219 486.566406 C 589.496094 492.398438 586.269531 500.113281 586.269531 508.367188 C 586.269531 516.621094 589.496094 524.335938 595.324219 530.167969 C 601.15625 536 608.867188 539.230469 617.113281 539.230469 C 625.363281 539.230469 633.074219 536 638.90625 530.167969 C 638.90625 530.167969 680.0625 488.988281 680.0625 488.988281 C 685.890625 483.15625 689.117188 475.441406 689.117188 467.1875 C 689.117188 458.933594 685.890625 451.21875 680.0625 445.386719 Z M 617.113281 495.449219 C 620.433594 495.449219 623.660156 496.703125 626.171875 499.214844 C 628.59375 501.636719 629.9375 504.867188 629.9375 508.277344 C 629.9375 511.6875 628.59375 514.914062 626.171875 517.339844 C 622.496094 521.015625 616.847656 521.914062 612.183594 520.121094 C 610.660156 519.492188 609.222656 518.59375 607.96875 517.339844 C 605.546875 514.914062 604.203125 511.6875 604.203125 508.277344 C 604.203125 504.867188 605.546875 501.636719 607.96875 499.214844 C 610.480469 496.703125 613.796875 495.449219 617.027344 495.449219 Z M 667.328125 476.25 L 645.898438 497.691406 C 644.375 493.5625 642.042969 489.707031 638.816406 486.566406 C 635.585938 483.335938 631.730469 481.003906 627.695312 479.566406 L 649.125 458.125 C 651.546875 455.703125 654.777344 454.359375 658.183594 454.359375 C 661.589844 454.359375 664.820312 455.703125 667.238281 458.125 C 669.660156 460.546875 671.003906 463.777344 671.003906 467.1875 C 671.003906 470.597656 669.660156 473.824219 667.238281 476.25 Z M 878.226562 247.023438 C 874.730469 243.523438 874.730469 237.871094 878.226562 234.375 L 914.273438 198.308594 C 917.773438 194.808594 923.421875 194.808594 926.917969 198.308594 C 930.414062 201.808594 930.414062 207.460938 926.917969 210.957031 L 890.871094 247.023438 C 889.078125 248.816406 886.835938 249.625 884.503906 249.625 C 882.171875 249.625 879.933594 248.726562 878.136719 247.023438 Z M 974.800781 283.359375 L 928.980469 305.609375 C 927.726562 306.234375 926.378906 306.503906 925.035156 306.503906 C 921.71875 306.503906 918.488281 304.621094 916.964844 301.480469 C 914.8125 296.996094 916.695312 291.613281 921.089844 289.460938 L 966.910156 267.210938 C 971.394531 265.058594 976.773438 266.941406 978.925781 271.335938 C 981.078125 275.824219 979.195312 281.207031 974.800781 283.359375 Z M 819.585938 196.15625 L 841.824219 150.308594 C 843.976562 145.824219 849.355469 144.03125 853.839844 146.183594 C 858.320312 148.335938 860.113281 153.71875 857.964844 158.203125 L 835.726562 204.050781 C 834.199219 207.28125 830.972656 209.074219 827.65625 209.074219 C 826.308594 209.074219 824.964844 208.804688 823.710938 208.175781 C 819.226562 206.023438 817.433594 200.640625 819.585938 196.15625 Z M 819.585938 196.15625 " fill-opacity="1" fill-rule="nonzero"/></g></svg>