<svg xmlns="http://www.w3.org/2000/svg" xmlns:xlink="http://www.w3.org/1999/xlink" width="1920" zoomAndPan="magnify" viewBox="0 0 1440 809.999993" height="1080" preserveAspectRatio="xMidYMid meet" version="1.0"><defs><clipPath id="bb8c11c155"><path d="M 402.949219 87.949219 L 1036.699219 87.949219 L 1036.699219 721.699219 L 402.949219 721.699219 Z M 402.949219 87.949219 " clip-rule="nonzero"/></clipPath></defs><path fill="#ff0000" d="M 1029.351562 410.417969 C 1025.96875 415.972656 1020.21875 419.25 1014.542969 422.421875 C 1016.945312 425.890625 1016.855469 430.550781 1015.785156 434.632812 C 1014.714844 438.714844 1012.773438 442.535156 1011.683594 446.617188 C 1010.597656 450.699219 1010.878906 456.097656 1013.246094 459.582031 C 1009.984375 459.722656 1007.25 462.335938 1005.917969 465.332031 C 1004.605469 468.328125 1004.394531 471.65625 1004.113281 474.914062 C 1003.835938 478.171875 1003.394531 481.539062 1001.695312 484.324219 L 1001.769531 484.339844 C 1006.449219 486.195312 1011.316406 488.179688 1014.632812 491.980469 C 1015.59375 493.101562 1016.417969 494.363281 1016.925781 495.730469 C 1018.085938 498.882812 1017.613281 502.460938 1016.3125 505.542969 C 1015.015625 508.644531 1012.964844 511.359375 1010.953125 514.039062 C 1013.582031 516.648438 1017.890625 519.59375 1019.082031 523.113281 C 1019.835938 525.359375 1019.90625 527.777344 1020.242188 530.121094 C 1021.398438 538.429688 1025.8125 546.246094 1025.535156 554.636719 L 1025.535156 554.652344 C 1025.515625 555.511719 1024.886719 556.230469 1024.152344 556.667969 C 1023.417969 557.109375 1022.589844 557.355469 1021.839844 557.738281 C 1019.226562 559.070312 1017.84375 562.035156 1017.300781 564.925781 C 1016.753906 567.816406 1016.84375 570.796875 1016.230469 573.667969 C 1014.988281 579.519531 1010.5 584.269531 1006.609375 588.828125 C 1008.730469 591.488281 1010.882812 594.1875 1012.089844 597.363281 C 1013.300781 600.53125 1013.441406 604.296875 1011.632812 607.171875 C 1009.429688 610.695312 1004.117188 612.375 1000.101562 613.429688 C 1003.066406 616.304688 1006.203125 619.472656 1006.792969 623.558594 C 1007.195312 626.398438 1006.320312 629.285156 1006.6875 632.125 C 1007.003906 634.578125 1008.25 636.839844 1009.84375 638.71875 C 1011.4375 640.59375 1013.378906 642.171875 1015.292969 643.730469 C 1011.820312 648.933594 1012.171875 656.382812 1013.804688 662.425781 C 1015.433594 668.472656 1018.320312 674.117188 1019.921875 680.179688 C 1021.96875 687.90625 1021.832031 696.195312 1019.550781 703.851562 C 1009.160156 706.320312 997.121094 706.339844 987.011719 702.886719 C 982.371094 701.292969 977.917969 699.101562 973.117188 698.066406 C 968.3125 697.03125 962.53125 697.191406 958.625 700.152344 C 956.835938 697.210938 954.085938 694.859375 950.898438 693.582031 C 947.199219 692.09375 943.097656 692.039062 939.15625 691.410156 C 935.21875 690.78125 930.835938 689.082031 928.609375 685.765625 C 927.664062 689.917969 925.71875 693.84375 922.96875 697.105469 C 921.988281 698.261719 920.792969 699.398438 919.289062 699.628906 C 918.152344 699.785156 917.027344 699.398438 915.957031 698.980469 C 911.929688 697.402344 907.953125 694.984375 904.410156 692.496094 C 902.308594 692.390625 900.414062 693.753906 898.960938 695.265625 C 897.507812 696.769531 896.242188 698.539062 894.476562 699.660156 C 889.9375 702.519531 883.769531 700.292969 878.777344 702.234375 C 874.675781 703.828125 871.203125 707.703125 868.964844 711.488281 C 867.527344 710.261719 865.597656 709.839844 863.726562 709.683594 C 861.851562 709.527344 859.960938 709.59375 858.121094 709.175781 C 855.371094 708.5625 852.953125 706.933594 850.273438 706.074219 C 846.472656 704.847656 842.300781 705.214844 838.515625 703.972656 C 834.21875 702.570312 830.859375 699.242188 827.667969 696.035156 C 823.691406 699.015625 821.851562 699.679688 817.222656 701.515625 C 815.367188 702.253906 813.351562 702.898438 811.40625 702.429688 C 809.796875 702.027344 808.464844 700.902344 807.289062 699.734375 C 803.835938 696.300781 801.050781 691.882812 799.121094 687.398438 C 794.074219 689.988281 787.800781 688.066406 782.386719 689.78125 C 778.601562 690.992188 775.21875 694.199219 773.90625 697.964844 C 771.171875 695.355469 766.808594 695.335938 763.199219 696.460938 C 759.589844 697.582031 756.328125 699.632812 752.71875 700.757812 C 747.828125 702.261719 742.394531 701.949219 737.71875 699.863281 L 737.738281 698.847656 C 735.964844 705.578125 731.148438 711.445312 724.894531 714.480469 C 723.125 715.339844 721.164062 715.988281 719.234375 715.691406 C 717.605469 715.429688 716.148438 714.53125 714.816406 713.570312 C 709.925781 710.082031 705.757812 705.578125 702.636719 700.425781 C 697.082031 701.375 691.421875 702.320312 686.253906 700.074219 C 683.605469 698.9375 681.3125 697.027344 678.613281 696.027344 C 674.375 694.464844 669.292969 695.480469 665.960938 698.53125 C 665.292969 695.289062 662.507812 692.59375 659.496094 691.246094 C 656.464844 689.894531 653.117188 689.527344 649.824219 689.175781 C 646.53125 688.828125 643.183594 688.441406 640.167969 687.054688 C 639.644531 691.875 637.714844 695.574219 634.457031 699.164062 C 633.140625 700.617188 631.546875 701.949219 629.621094 702.25 C 628.378906 702.441406 627.097656 702.175781 625.886719 701.847656 C 621.46875 700.65625 617.285156 698.660156 613.585938 695.976562 C 607.558594 698.042969 603.984375 704.347656 597.765625 705.734375 C 594.839844 706.382812 591.71875 705.808594 588.792969 706.453125 C 586.5 706.960938 584.449219 708.171875 582.1875 708.839844 C 578.207031 710.015625 573.691406 709.46875 570.128906 711.589844 C 568.253906 707.332031 563.683594 703.863281 559.214844 702.582031 C 556.585938 701.828125 553.800781 701.773438 551.121094 701.199219 C 546.003906 700.113281 540.414062 696.167969 537.3125 691.96875 C 535.019531 694.089844 534.597656 694.492188 531.882812 696.066406 C 529.164062 697.644531 525.976562 698.574219 522.894531 698.117188 C 520.074219 697.699219 517.496094 696.085938 515.691406 693.894531 C 513.871094 691.707031 512.398438 688.0625 512.03125 685.238281 C 509.664062 689.019531 505.316406 691.355469 500.886719 691.808594 C 497.855469 692.125 494.769531 691.632812 491.777344 692.191406 C 487.589844 692.980469 483.160156 696.554688 481.40625 700.425781 C 477.707031 697.691406 472.730469 697.339844 468.15625 697.972656 C 460.8125 698.988281 453.980469 702.199219 446.828125 704.109375 C 438.578125 706.316406 427.046875 706.371094 420.527344 703.863281 C 418.230469 696.207031 418.109375 687.917969 420.160156 680.191406 C 421.769531 674.144531 424.660156 668.484375 426.277344 662.441406 C 427.910156 656.394531 428.277344 648.945312 424.789062 643.742188 C 426.714844 642.183594 428.644531 640.625 430.238281 638.730469 C 431.832031 636.835938 433.078125 634.59375 433.390625 632.140625 C 433.757812 629.296875 432.867188 626.410156 433.285156 623.570312 C 433.882812 619.488281 437.019531 616.316406 439.976562 613.441406 C 435.949219 612.40625 430.65625 610.707031 428.445312 607.1875 C 426.640625 604.3125 426.78125 600.542969 427.988281 597.375 C 429.199219 594.203125 431.355469 591.484375 433.472656 588.839844 C 429.582031 584.28125 425.097656 579.550781 423.851562 573.679688 C 423.238281 570.804688 423.34375 567.828125 422.78125 564.9375 C 422.234375 562.046875 420.851562 559.085938 418.242188 557.753906 C 417.488281 557.367188 416.648438 557.121094 415.929688 556.683594 C 415.191406 556.242188 414.5625 555.523438 414.546875 554.667969 L 414.546875 554.648438 C 414.25 546.273438 418.664062 538.441406 419.839844 530.136719 C 420.171875 527.789062 420.238281 525.371094 420.996094 523.125 C 422.1875 519.605469 426.480469 516.679688 429.125 514.050781 C 427.09375 511.371094 425.058594 508.652344 423.765625 505.554688 C 422.472656 502.457031 421.976562 498.878906 423.152344 495.742188 C 423.660156 494.359375 424.484375 493.097656 425.449219 491.992188 C 428.742188 488.1875 433.632812 486.191406 438.3125 484.355469 L 438.382812 484.335938 C 436.683594 481.535156 436.261719 478.1875 435.964844 474.925781 C 435.6875 471.667969 435.476562 468.320312 434.160156 465.34375 C 432.847656 462.363281 430.109375 459.738281 426.835938 459.59375 C 429.203125 456.089844 429.480469 450.710938 428.394531 446.628906 C 427.308594 442.550781 425.363281 438.730469 424.292969 434.644531 C 423.226562 430.5625 423.136719 425.902344 425.535156 422.433594 C 419.859375 419.261719 414.109375 415.988281 410.730469 410.433594 C 409.449219 408.347656 408.574219 405.859375 409.011719 403.457031 C 409.347656 401.636719 410.394531 400.023438 411.535156 398.550781 C 413.390625 396.148438 415.53125 393.976562 417.914062 392.082031 C 419.507812 390.820312 421.226562 389.644531 422.488281 388.050781 C 423.75 386.460938 424.503906 384.285156 423.820312 382.359375 C 423.453125 379.148438 423.558594 375.292969 424.574219 372.214844 C 425.710938 368.757812 428.25 365.890625 429.285156 362.402344 C 430.480469 358.425781 429.566406 353.726562 426.835938 350.609375 C 428.746094 349.800781 430.722656 348.941406 432.09375 347.382812 C 433.320312 345.980469 433.933594 344.15625 434.40625 342.351562 C 435.738281 337.304688 436.195312 332.066406 436.652344 326.878906 C 436.699219 326.371094 436.738281 325.808594 436.457031 325.375 C 436.195312 324.933594 434.511719 324.5 434.195312 324.902344 C 428.445312 323.519531 423.730469 318.523438 422.683594 312.6875 C 421.632812 306.855469 424.332031 300.542969 429.253906 297.25 C 424.957031 294.554688 421.945312 289.820312 420.40625 284.984375 C 418.867188 280.148438 418.371094 275.050781 417.601562 270.035156 C 416.832031 265.023438 415.707031 259.941406 413.101562 255.59375 C 417.183594 252.53125 421.582031 249.566406 422.929688 244.855469 C 423.925781 241.421875 423.699219 237.722656 424.523438 234.234375 C 425.644531 229.417969 428.816406 225.125 433.074219 222.636719 C 430.972656 219.972656 428.902344 216.519531 427.851562 213.296875 C 426.800781 210.070312 426.785156 206.378906 428.539062 203.46875 C 430.746094 199.769531 435.667969 197.878906 439.875 196.898438 L 440.050781 196.898438 C 437.964844 195.355469 438.050781 195.460938 436.542969 193.363281 C 434.722656 190.804688 433.933594 187.632812 433.457031 184.515625 C 432.984375 181.394531 432.773438 178.222656 431.898438 175.191406 C 431.972656 173.035156 430.8125 170.480469 429.007812 169.304688 C 427.816406 168.535156 426.253906 168.042969 425.675781 166.746094 C 425.308594 165.90625 425.480469 164.90625 425.957031 164.132812 C 426.429688 163.363281 427.285156 162.644531 428.09375 162.207031 C 427.832031 153.566406 424.3125 145.402344 422.082031 137.046875 C 419.332031 126.796875 418.488281 116.054688 419.613281 105.507812 C 426.148438 103 438.628906 103.613281 446.878906 105.824219 C 454.027344 107.734375 460.863281 110.9375 468.207031 111.957031 C 472.765625 112.585938 477.738281 112.238281 481.457031 109.503906 C 483.210938 113.394531 487.640625 116.972656 491.828125 117.742188 C 494.824219 118.300781 497.90625 117.8125 500.9375 118.125 C 505.390625 118.582031 509.71875 120.910156 512.082031 124.695312 C 512.464844 121.875 513.9375 118.246094 515.742188 116.035156 C 517.566406 113.847656 520.140625 112.253906 522.945312 111.8125 C 526.046875 111.339844 529.21875 112.285156 531.933594 113.863281 C 534.652344 115.421875 535.070312 115.824219 537.363281 117.964844 C 540.484375 113.757812 546.054688 109.8125 551.171875 108.726562 C 553.851562 108.164062 556.636719 108.097656 559.265625 107.34375 C 563.75 106.066406 568.308594 102.613281 570.179688 98.335938 C 573.757812 100.460938 578.257812 99.898438 582.238281 101.089844 C 584.480469 101.757812 586.550781 102.964844 588.84375 103.472656 C 591.785156 104.121094 594.890625 103.546875 597.816406 104.191406 C 604.039062 105.574219 607.609375 111.902344 613.636719 113.953125 C 617.335938 111.273438 621.519531 109.257812 625.9375 108.082031 C 627.164062 107.746094 628.429688 107.484375 629.671875 107.679688 C 631.597656 107.976562 633.210938 109.3125 634.507812 110.765625 C 637.75 114.359375 639.695312 118.054688 640.21875 122.871094 C 643.234375 121.488281 646.582031 121.101562 649.875 120.75 C 653.167969 120.398438 656.515625 120.03125 659.546875 118.683594 C 662.578125 117.335938 665.34375 114.632812 666.011719 111.394531 C 669.34375 114.460938 674.425781 115.460938 678.664062 113.902344 C 681.378906 112.902344 683.65625 110.992188 686.304688 109.851562 C 691.472656 107.628906 697.132812 108.570312 702.6875 109.5 C 705.808594 104.347656 709.976562 99.863281 714.867188 96.359375 C 716.214844 95.394531 717.652344 94.503906 719.285156 94.238281 C 721.230469 93.941406 723.191406 94.585938 724.945312 95.445312 C 731.203125 98.476562 736.019531 104.347656 737.789062 111.078125 L 737.769531 110.0625 C 742.449219 107.980469 747.882812 107.664062 752.769531 109.171875 C 756.378906 110.292969 759.640625 112.34375 763.25 113.464844 C 766.859375 114.585938 771.203125 114.554688 773.957031 111.960938 C 775.253906 115.710938 778.636719 118.9375 782.4375 120.144531 C 787.851562 121.863281 794.125 119.933594 799.171875 122.53125 C 801.101562 118.042969 803.886719 113.644531 807.339844 110.195312 C 808.515625 109.019531 809.847656 107.898438 811.457031 107.496094 C 813.402344 107.023438 815.417969 107.671875 817.273438 108.410156 C 821.882812 110.25 823.742188 110.917969 827.71875 113.894531 C 830.90625 110.683594 834.253906 107.375 838.566406 105.953125 C 842.347656 104.710938 846.539062 105.078125 850.320312 103.855469 C 853.003906 102.996094 855.421875 101.363281 858.171875 100.75 C 860.011719 100.347656 861.90625 100.417969 863.777344 100.242188 C 865.65625 100.085938 867.582031 99.648438 869.015625 98.4375 C 871.261719 102.222656 874.710938 106.117188 878.828125 107.691406 C 883.839844 109.621094 890.007812 107.394531 894.527344 110.265625 C 896.316406 111.386719 897.558594 113.15625 899.011719 114.664062 C 900.464844 116.167969 902.359375 117.539062 904.460938 117.433594 C 908 114.964844 911.992188 112.539062 916.007812 110.945312 C 917.078125 110.527344 918.199219 110.140625 919.339844 110.300781 C 920.84375 110.511719 922.039062 111.648438 923.019531 112.824219 C 925.769531 116.082031 927.714844 120.011719 928.660156 124.160156 C 930.886719 120.851562 935.269531 119.148438 939.207031 118.519531 C 943.152344 117.886719 947.230469 117.832031 950.949219 116.34375 C 954.136719 115.0625 956.886719 112.71875 958.675781 109.777344 C 962.582031 112.757812 968.363281 112.914062 973.167969 111.859375 C 977.96875 110.824219 982.421875 108.617188 987.0625 107.042969 C 997.171875 103.585938 1010.15625 103.03125 1020.566406 105.5 C 1021.6875 116.046875 1020.847656 126.785156 1018.097656 137.039062 C 1015.851562 145.394531 1012.332031 153.546875 1012.085938 162.199219 C 1012.894531 162.617188 1013.734375 163.335938 1014.226562 164.125 C 1014.714844 164.917969 1014.871094 165.914062 1014.503906 166.738281 C 1013.925781 168.054688 1012.367188 168.527344 1011.175781 169.296875 C 1009.367188 170.472656 1008.210938 173.027344 1008.28125 175.183594 C 1007.425781 178.214844 1007.214844 181.386719 1006.722656 184.503906 C 1006.230469 187.625 1005.464844 190.777344 1003.636719 193.351562 C 1002.132812 195.453125 1002.214844 195.351562 1000.132812 196.890625 L 1000.304688 196.890625 C 1004.511719 197.871094 1009.414062 199.765625 1011.644531 203.460938 C 1013.375 206.367188 1013.375 210.066406 1012.328125 213.289062 C 1011.273438 216.515625 1009.207031 219.964844 1007.105469 222.628906 C 1011.363281 225.117188 1014.539062 229.425781 1015.660156 234.226562 C 1016.464844 237.714844 1016.253906 241.390625 1017.253906 244.84375 C 1018.617188 249.542969 1023 252.523438 1027.082031 255.585938 C 1024.453125 259.933594 1023.347656 265.015625 1022.578125 270.027344 C 1021.808594 275.042969 1021.320312 280.140625 1019.777344 284.976562 C 1018.234375 289.8125 1015.234375 294.542969 1010.929688 297.242188 C 1015.851562 300.535156 1018.535156 306.863281 1017.496094 312.679688 C 1016.460938 318.496094 1011.75 323.511719 1005.988281 324.894531 C 1005.671875 324.492188 1003.988281 324.925781 1003.726562 325.367188 C 1003.464844 325.804688 1003.496094 326.347656 1003.53125 326.871094 C 1003.988281 332.074219 1004.460938 337.296875 1005.777344 342.34375 C 1006.25 344.148438 1006.863281 345.96875 1008.089844 347.375 C 1009.453125 348.933594 1011.4375 349.792969 1013.347656 350.597656 C 1010.613281 353.71875 1009.703125 358.414062 1010.894531 362.394531 C 1011.929688 365.878906 1014.472656 368.753906 1015.609375 372.203125 C 1016.621094 375.269531 1016.730469 379.125 1016.359375 382.351562 C 1015.675781 384.261719 1016.433594 386.449219 1017.691406 388.042969 C 1018.953125 389.636719 1020.671875 390.796875 1022.265625 392.074219 C 1024.632812 393.964844 1026.785156 396.140625 1028.644531 398.539062 C 1029.78125 400.011719 1030.835938 401.625 1031.167969 403.449219 C 1031.523438 405.84375 1030.632812 408.3125 1029.351562 410.417969 Z M 1029.351562 410.417969 " fill-opacity="1" fill-rule="nonzero"/><g clip-path="url(#bb8c11c155)"><path fill="#a9e3ed" d="M 402.949219 87.949219 L 1037.039062 87.949219 L 1037.039062 722.039062 L 402.949219 722.039062 Z M 402.949219 87.949219 " fill-opacity="1" fill-rule="nonzero"/></g></svg>